<svg width="997" height="1024" viewBox="0 0 997 1024" fill="none" xmlns="http://www.w3.org/2000/svg">
<path d="M80 332.928C35.8172 256.402 62.0372 158.547 138.564 114.364L196.353 81C272.88 36.8172 370.734 63.0372 414.917 139.564L494.917 278.128L298.564 391.492C222.037 435.675 124.183 409.455 80 332.928Z" fill="#ECEBD8"/>
<rect y="194.364" width="386.729" height="320" rx="160" transform="rotate(-30 0 194.364)" fill="white"/>
<path d="M398 885.928C353.817 809.402 380.037 711.547 456.564 667.364L652.917 554L732.917 692.564C777.1 769.091 750.88 866.945 674.353 911.128L616.564 944.492C540.037 988.675 442.183 962.455 398 885.928Z" fill="#ECEBD8"/>
<rect x="318" y="747.364" width="386.729" height="320" rx="160" transform="rotate(-30 318 747.364)" fill="white"/>
<path d="M413 139.064C368.817 62.5373 395.037 -35.3172 471.564 -79.5L922.763 -340L1402.76 491.384L951.564 751.884C875.037 796.067 777.183 769.847 733 693.32L413 139.064Z" fill="#ECEBD8"/>
<rect x="213" y="439.085" width="1134.17" height="320" rx="101" transform="rotate(-30 213 439.085)" fill="#ECEBD8"/>
</svg>
