<?xml version="1.0" standalone="no"?>
<!DOCTYPE svg PUBLIC "-//W3C//DTD SVG 20010904//EN"
 "http://www.w3.org/TR/2001/REC-SVG-20010904/DTD/svg10.dtd">
<svg version="1.0" xmlns="http://www.w3.org/2000/svg"
 width="700.000000pt" height="700.000000pt" viewBox="0 0 700.000000 700.000000"
 preserveAspectRatio="xMidYMid meet">
<metadata>
Created by potrace 1.14, written by Peter Selinger 2001-2017
</metadata>
<g transform="translate(0.000000,700.000000) scale(0.100000,-0.100000)"
fill="#000000" stroke="none">
<path d="M2896 6123 c-4 -4 -20 -9 -34 -9 -157 -8 -315 -16 -352 -19 -25 -2
-92 -6 -150 -10 -92 -5 -174 -15 -246 -29 -57 -11 -161 -40 -177 -48 -10 -5
-28 -11 -40 -14 -11 -2 -37 -11 -57 -20 -139 -64 -181 -86 -229 -118 -29 -20
-57 -36 -62 -36 -5 0 -9 -4 -9 -10 0 -5 -6 -10 -14 -10 -8 0 -16 -3 -18 -7 -1
-5 -30 -30 -63 -57 -198 -163 -368 -398 -452 -626 -13 -36 -27 -72 -30 -80 -3
-8 -7 -17 -8 -20 0 -3 -9 -39 -19 -80 -9 -41 -20 -86 -23 -100 -7 -27 -7 -33
-17 -130 -25 -260 -26 -1361 -2 -1660 7 -89 30 -226 42 -260 3 -8 8 -26 10
-40 4 -23 32 -104 53 -155 23 -56 108 -217 140 -264 20 -29 41 -60 46 -69 6
-9 15 -21 20 -28 6 -6 26 -31 45 -55 49 -60 134 -144 143 -141 4 1 7 -2 7 -7
0 -10 94 -86 170 -138 168 -114 469 -228 618 -232 13 -1 21 -4 19 -8 -3 -5 18
-8 46 -9 29 0 93 -4 142 -7 50 -4 133 -9 185 -12 52 -3 106 -8 120 -12 14 -3
30 -5 35 -3 20 6 150 -2 160 -10 6 -5 16 -5 23 -1 7 4 43 6 80 4 37 -2 113 -5
168 -6 85 -2 101 -4 96 -17 -9 -23 -65 -114 -75 -121 -5 -3 -9 -10 -9 -15 0
-5 -4 -8 -8 -7 -4 1 -7 -5 -6 -15 0 -9 -5 -16 -12 -14 -8 1 -11 -2 -8 -7 7
-10 -1 -25 -63 -128 -24 -41 -48 -70 -54 -66 -5 3 -7 1 -3 -5 7 -12 -13 -62
-26 -62 -5 0 -6 -4 -3 -10 3 -5 2 -10 -3 -10 -6 0 -15 -14 -21 -31 -7 -19 -15
-28 -22 -23 -7 4 -9 3 -6 -3 3 -5 -16 -47 -43 -92 -28 -45 -50 -84 -50 -86 0
-2 81 -3 180 -2 154 2 180 0 181 -13 0 -10 3 -8 9 5 5 11 9 14 9 8 1 -9 8 -10
26 -3 18 7 25 6 25 -3 0 -7 3 -8 8 -2 12 17 42 14 43 -4 0 -12 2 -12 9 4 5 11
9 15 9 9 1 -7 8 -14 15 -17 10 -4 13 -1 10 7 -5 14 23 15 44 2 6 -4 12 -3 12
1 0 5 9 9 20 9 11 0 20 -4 20 -8 0 -4 11 -3 25 2 18 7 25 6 25 -3 0 -7 3 -8 8
-2 11 15 36 12 44 -5 5 -12 7 -11 7 3 1 10 6 15 11 12 6 -4 8 -10 6 -14 -3 -4
1 -8 8 -8 8 0 12 6 10 12 -5 13 24 14 44 1 6 -4 12 -3 12 1 0 5 9 9 20 9 11 0
20 -4 20 -8 0 -4 11 -3 25 2 18 7 25 6 25 -3 0 -7 3 -8 8 -2 11 15 36 12 44
-5 5 -12 7 -11 7 3 1 10 6 15 11 12 6 -4 8 -10 6 -14 -3 -4 1 -8 8 -8 8 0 12
6 10 12 -5 13 24 14 44 1 6 -4 12 -3 12 1 0 5 9 9 20 9 11 0 20 -4 20 -8 0 -4
7 -5 15 -2 26 10 105 9 109 -1 3 -7 5 -7 5 0 1 10 122 11 148 1 7 -3 13 -2 13
2 0 4 21 6 46 5 43 -2 45 -1 30 16 -9 10 -16 20 -16 24 0 7 -115 197 -130 214
-6 7 -8 13 -5 13 4 0 -3 14 -15 30 -12 16 -19 30 -16 30 3 0 -3 9 -15 21 -11
11 -18 27 -15 35 3 7 1 13 -3 11 -5 -1 -9 2 -9 7 0 5 -4 12 -9 15 -16 11 -84
124 -80 132 1 2 0 3 -2 2 -5 -3 -71 106 -71 117 0 4 -7 13 -15 20 -11 9 -13
16 -6 23 14 14 114 15 123 2 5 -6 8 -5 8 4 0 11 3 11 17 0 11 -10 14 -10 9 -1
-5 9 6 12 46 13 29 1 70 2 91 3 20 1 37 -3 37 -9 0 -6 3 -5 8 2 4 7 48 14 107
17 55 4 123 8 150 11 28 2 82 7 120 10 161 13 178 15 183 20 3 2 11 -3 19 -13
12 -16 13 -16 7 1 -4 12 -1 17 12 18 11 0 28 2 39 5 11 2 30 5 43 6 12 1 22 7
22 13 0 5 5 3 10 -5 6 -10 10 -11 10 -2 0 6 11 12 25 12 14 0 25 5 25 11 0 5
4 7 10 4 5 -3 19 -1 31 5 11 7 33 14 47 16 15 3 31 9 38 15 6 5 14 6 17 2 4
-3 7 -1 7 5 0 7 5 12 12 12 13 0 160 69 168 79 3 3 22 15 43 26 20 11 37 24
37 28 0 5 7 6 16 3 8 -3 13 -2 10 3 -3 4 19 25 49 46 30 20 55 41 55 46 0 5 5
9 10 9 6 0 46 36 91 80 44 44 78 80 75 80 -3 0 7 13 22 29 15 15 36 41 47 57
11 15 27 35 35 44 8 9 16 22 18 29 1 7 9 20 17 28 9 8 13 19 10 24 -4 5 -1 9
4 9 11 0 46 68 43 83 -1 4 2 7 7 7 10 0 27 39 23 53 -1 4 2 7 7 7 5 0 11 10
15 23 3 13 13 41 22 63 10 21 18 46 20 54 1 8 11 49 22 91 29 106 39 166 47
259 5 59 17 270 19 335 0 22 6 43 11 47 6 5 6 8 -1 8 -7 0 -10 12 -7 28 2 15
6 149 8 299 2 150 6 276 8 281 3 4 2 14 -3 22 -5 8 -5 22 1 32 5 10 6 18 1 18
-4 0 -8 24 -9 53 -2 246 -27 625 -47 715 -5 19 -9 43 -11 55 -2 12 -10 45 -18
74 -8 28 -12 54 -9 57 3 3 -1 6 -8 6 -7 0 -10 3 -7 7 4 3 2 12 -4 20 -6 7 -9
13 -5 13 4 0 -1 15 -11 33 -9 17 -18 34 -18 37 -11 40 -76 163 -126 238 -16
24 -29 47 -29 51 0 5 -7 12 -16 15 -10 4 -14 12 -10 23 4 10 4 14 0 10 -4 -4
-21 10 -38 30 -17 20 -38 45 -48 54 -9 10 -14 20 -11 23 4 3 2 6 -4 6 -5 0
-30 19 -55 43 -86 80 -130 117 -139 117 -5 0 -9 5 -9 10 0 6 -7 10 -15 10 -8
0 -15 3 -15 8 0 4 -16 16 -35 26 -19 11 -32 24 -28 30 3 6 3 8 -2 4 -7 -7 -83
28 -95 44 -5 6 -52 28 -70 33 -3 0 -25 10 -50 22 -44 20 -80 35 -90 38 -3 0
-32 9 -65 19 -146 44 -243 59 -465 72 -58 3 -110 10 -116 15 -6 5 -14 6 -17 2
-7 -7 -101 -5 -152 3 -29 4 -42 5 -67 3 -7 -1 -98 2 -203 7 -212 8 -819 10
-992 2 -62 -2 -114 0 -115 4 -2 5 -7 6 -12 1z"/>
<path d="M6316 3407 c3 -10 9 -15 12 -12 3 3 0 11 -7 18 -10 9 -11 8 -5 -6z"/>
<path d="M6426 3198 c3 -5 10 -6 15 -3 13 9 11 12 -6 12 -8 0 -12 -4 -9 -9z"/>
<path d="M5825 2040 c-3 -6 1 -7 9 -4 18 7 21 14 7 14 -6 0 -13 -4 -16 -10z"/>
<path d="M3135 851 c-3 -5 -2 -12 3 -15 5 -3 9 1 9 9 0 17 -3 19 -12 6z"/>
<path d="M3255 849 c-4 -6 -5 -12 -2 -15 2 -3 7 2 10 11 7 17 1 20 -8 4z"/>
<path d="M3393 847 c0 -7 11 -13 23 -13 20 0 25 11 6 11 -4 0 -12 3 -18 7 -6
4 -11 1 -11 -5z"/>
<path d="M3735 849 c-4 -6 -5 -12 -2 -15 2 -3 7 2 10 11 7 17 1 20 -8 4z"/>
<path d="M3876 847 c3 -10 9 -15 12 -12 3 3 0 11 -7 18 -10 9 -11 8 -5 -6z"/>
<path d="M3974 849 c-3 -6 -2 -15 3 -20 5 -5 9 -1 9 11 0 23 -2 24 -12 9z"/>
<path d="M3274 838 c-4 -7 -4 -10 1 -6 4 4 15 2 24 -5 14 -11 14 -10 2 6 -16
20 -18 21 -27 5z"/>
<path d="M3453 833 c0 -9 4 -10 14 -2 7 6 13 12 13 14 0 1 -6 2 -13 2 -8 0
-14 -6 -14 -14z"/>
<path d="M3754 838 c-4 -7 -4 -10 1 -6 4 4 15 2 24 -5 14 -11 14 -10 2 6 -16
20 -18 21 -27 5z"/>
<path d="M4075 840 c-3 -5 -1 -10 4 -10 6 0 11 5 11 10 0 6 -2 10 -4 10 -3 0
-8 -4 -11 -10z"/>
<path d="M4110 841 c0 -6 4 -12 8 -15 5 -3 9 1 9 9 0 8 -4 15 -9 15 -4 0 -8
-4 -8 -9z"/>
<path d="M3550 836 c0 -2 8 -10 18 -17 15 -13 16 -12 3 4 -13 16 -21 21 -21
13z"/>
<path d="M2993 815 c0 -8 4 -12 9 -9 5 3 6 10 3 15 -9 13 -12 11 -12 -6z"/>
<path d="M3633 807 c-1 -11 -1 -18 0 -16 2 2 8 11 15 20 9 12 9 16 -1 16 -7 0
-14 -9 -14 -20z"/>
<path d="M3673 813 c0 -9 4 -10 14 -2 7 6 13 12 13 14 0 1 -6 2 -13 2 -8 0
-14 -6 -14 -14z"/>
<path d="M3714 805 c0 -13 3 -22 7 -19 8 4 6 30 -2 38 -3 3 -5 -5 -5 -19z"/>
<path d="M3029 803 c-13 -16 -12 -17 4 -4 16 13 21 21 13 21 -2 0 -10 -8 -17
-17z"/>
<path d="M3239 818 c-5 -18 -6 -38 -1 -34 7 8 12 36 6 36 -2 0 -4 -1 -5 -2z"/>
<path d="M3333 807 c0 -8 6 -14 14 -14 9 0 10 4 2 14 -6 7 -12 13 -14 13 -1 0
-2 -6 -2 -13z"/>
<path d="M3813 807 c0 -7 11 -13 23 -13 20 0 25 11 6 11 -4 0 -12 3 -18 7 -6
4 -11 1 -11 -5z"/>
<path d="M3060 806 c0 -2 8 -10 18 -17 15 -13 16 -12 3 4 -13 16 -21 21 -21
13z"/>
<path d="M3417 791 c-10 -14 -10 -14 4 -4 9 7 18 10 21 7 3 -3 8 -1 12 4 9 16
-24 9 -37 -7z"/>
<path d="M3470 800 c0 -4 7 -7 15 -6 23 3 26 12 5 13 -11 1 -20 -2 -20 -7z"/>
<path d="M3966 802 c-3 -5 1 -9 9 -9 8 0 12 4 9 9 -3 4 -7 8 -9 8 -2 0 -6 -4
-9 -8z"/>
<path d="M4106 802 c-3 -5 1 -9 9 -9 8 0 12 4 9 9 -3 4 -7 8 -9 8 -2 0 -6 -4
-9 -8z"/>
<path d="M3550 778 c0 -4 4 -8 9 -8 6 0 12 4 15 8 3 5 -1 9 -9 9 -8 0 -15 -4
-15 -9z"/>
<path d="M3595 781 c-3 -5 -2 -12 3 -15 5 -3 9 1 9 9 0 17 -3 19 -12 6z"/>
<path d="M3855 769 c-4 -6 -5 -12 -2 -15 2 -3 7 2 10 11 7 17 1 20 -8 4z"/>
<path d="M3026 762 c-3 -5 1 -9 9 -9 8 0 12 4 9 9 -3 4 -7 8 -9 8 -2 0 -6 -4
-9 -8z"/>
<path d="M3150 761 c0 -6 4 -13 10 -16 6 -3 7 1 4 9 -7 18 -14 21 -14 7z"/>
<path d="M3417 755 c-4 -8 -3 -16 1 -19 4 -3 9 4 9 15 2 23 -3 25 -10 4z"/>
<path d="M3450 759 c0 -5 5 -7 10 -4 6 3 10 8 10 11 0 2 -4 4 -10 4 -5 0 -10
-5 -10 -11z"/>
<path d="M3816 758 c3 -5 10 -6 15 -3 13 9 11 12 -6 12 -8 0 -12 -4 -9 -9z"/>
<path d="M3876 753 c-6 -14 -5 -15 5 -6 7 7 10 15 7 18 -3 3 -9 -2 -12 -12z"/>
<path d="M4134 756 c1 -8 5 -18 8 -22 4 -3 5 1 4 10 -1 8 -5 18 -8 22 -4 3 -5
-1 -4 -10z"/>
<path d="M3535 740 c3 -5 8 -10 11 -10 2 0 4 5 4 10 0 6 -5 10 -11 10 -5 0 -7
-4 -4 -10z"/>
<path d="M3935 740 c3 -5 8 -10 11 -10 2 0 4 5 4 10 0 6 -5 10 -11 10 -5 0 -7
-4 -4 -10z"/>
<path d="M3076 715 c-9 -26 -7 -32 5 -12 6 10 9 21 6 23 -2 3 -7 -2 -11 -11z"/>
<path d="M3177 715 c-4 -8 -3 -16 1 -19 4 -3 9 4 9 15 2 23 -3 25 -10 4z"/>
<path d="M3654 716 c1 -8 5 -18 8 -22 4 -3 5 1 4 10 -1 8 -5 18 -8 22 -4 3 -5
-1 -4 -10z"/>
<path d="M4000 720 c-9 -6 -10 -10 -3 -10 6 0 15 5 18 10 8 12 4 12 -15 0z"/>
<path d="M3413 705 c0 -8 4 -12 9 -9 5 3 6 10 3 15 -9 13 -12 11 -12 -6z"/>
<path d="M3755 710 c-4 -6 -11 -7 -17 -4 -7 4 -8 2 -4 -5 6 -9 11 -9 22 0 14
11 18 19 10 19 -3 0 -8 -5 -11 -10z"/>
<path d="M3206 702 c-3 -5 1 -9 9 -9 8 0 12 4 9 9 -3 4 -7 8 -9 8 -2 0 -6 -4
-9 -8z"/>
<path d="M3256 698 c3 -5 10 -6 15 -3 13 9 11 12 -6 12 -8 0 -12 -4 -9 -9z"/>
<path d="M3535 699 c-3 -4 2 -6 10 -5 21 3 28 13 10 13 -9 0 -18 -4 -20 -8z"/>
<path d="M3686 702 c-3 -5 1 -9 9 -9 8 0 12 4 9 9 -3 4 -7 8 -9 8 -2 0 -6 -4
-9 -8z"/>
<path d="M3853 695 c0 -8 4 -12 9 -9 5 3 6 10 3 15 -9 13 -12 11 -12 -6z"/>
<path d="M3935 699 c-3 -4 2 -6 10 -5 21 3 28 13 10 13 -9 0 -18 -4 -20 -8z"/>
<path d="M4035 700 c3 -5 8 -10 11 -10 2 0 4 5 4 10 0 6 -5 10 -11 10 -5 0 -7
-4 -4 -10z"/>
<path d="M3355 680 c-3 -5 -1 -10 4 -10 6 0 11 5 11 10 0 6 -2 10 -4 10 -3 0
-8 -4 -11 -10z"/>
<path d="M3600 680 c-9 -6 -10 -10 -3 -10 6 0 15 5 18 10 8 12 4 12 -15 0z"/>
</g>
</svg>
